<?xml version="1.0" standalone="no"?>
<!DOCTYPE svg PUBLIC "-//W3C//DTD SVG 20010904//EN"
 "http://www.w3.org/TR/2001/REC-SVG-20010904/DTD/svg10.dtd">
<svg version="1.0" xmlns="http://www.w3.org/2000/svg"
 width="260.000000pt" height="260.000000pt" viewBox="0 0 260.000000 260.000000"
 preserveAspectRatio="xMidYMid meet">
<metadata>
Created by potrace 1.11, written by Peter Selinger 2001-2013
</metadata>
<g transform="translate(0.000000,260.000000) scale(0.100000,-0.100000)"
fill="#000000" stroke="none">
<path d="M1518 2491 c-198 -54 -289 -181 -292 -409 l-1 -97 100 0 c157 1 285
54 346 145 58 86 98 246 84 336 l-6 44 -82 -1 c-46 0 -112 -8 -149 -18z"/>
<path d="M661 1894 c-254 -68 -421 -365 -421 -749 0 -434 208 -854 491 -994
153 -75 293 -81 436 -17 109 48 157 48 266 0 200 -89 422 -39 597 135 161 158
263 373 311 649 91 533 -146 992 -512 992 -106 0 -297 -48 -442 -110 l-88 -38
-65 29 c-94 43 -206 78 -317 100 -114 22 -181 23 -256 3z m586 -405 c121 -26
245 -100 301 -181 27 -39 35 -44 91 -55 134 -25 278 -125 329 -226 59 -119 43
-253 -43 -356 l-27 -31 26 -43 c14 -23 40 -60 56 -83 26 -34 29 -44 21 -66
-12 -32 -37 -38 -114 -28 -71 11 -122 27 -194 63 -47 24 -55 25 -119 16 -83
-12 -210 2 -290 32 -71 27 -168 92 -202 137 -65 85 -87 90 -182 42 -68 -34
-165 -60 -227 -60 -34 0 -46 5 -59 25 -18 28 -20 23 59 138 41 59 42 59 -4
117 -41 51 -61 115 -61 193 0 254 315 434 639 366z"/>
<path d="M1031 1390 c-191 -28 -339 -170 -314 -302 9 -49 30 -86 81 -140 l46
-49 -28 -56 -27 -55 26 6 c14 4 48 20 76 37 49 31 50 31 115 19 177 -34 376
31 458 148 40 57 48 149 18 209 -45 87 -171 164 -299 183 -75 11 -76 11 -152
0z"/>
<path d="M1610 1093 c0 -103 -98 -236 -219 -298 -29 -14 -87 -35 -129 -46 -41
-10 -77 -21 -80 -23 -2 -3 18 -20 45 -40 95 -69 242 -98 370 -73 61 12 76 12
92 0 23 -15 116 -63 125 -63 3 0 -6 24 -21 54 l-26 54 46 53 c62 70 81 113 80
176 -1 96 -79 186 -201 233 -77 29 -82 28 -82 -27z"/>
</g>
</svg>
