<?xml version="1.0" encoding="UTF-8"?>
<svg width="642px" height="512px" viewBox="0 0 642 512" version="1.1" xmlns="http://www.w3.org/2000/svg" xmlns:xlink="http://www.w3.org/1999/xlink">
    <!-- Generator: Sketch 60.1 (88133) - https://sketch.com -->
    <title>code-solid</title>
    <desc>Created with Sketch.</desc>
    <g id="Page-1" stroke="none" stroke-width="1" fill="none" fill-rule="evenodd">
        <g id="code-solid" fill="#EA3546" fill-rule="nonzero">
            <path d="M279.9,511.5 L218.9,493.8 C212.5,492 208.9,485.3 210.7,478.9 L347.2,8.7 C349,2.3 355.7,-1.3 362.1,0.5 L423.1,18.2 C429.5,20 433.1,26.7 431.3,33.1 L294.8,503.3 C292.9,509.7 286.3,513.4 279.9,511.5 L279.9,511.5 Z M165.9,399.3 L209.4,352.9 C214,348 213.7,340.2 208.6,335.7 L118,256 L208.6,176.3 C213.7,171.8 214.1,164 209.4,159.1 L165.9,112.7 C161.4,107.9 153.8,107.6 148.9,112.2 L4.8,247.2 C-0.3,251.9 -0.3,260 4.8,264.7 L148.9,399.8 C153.8,404.4 161.4,404.2 165.9,399.3 L165.9,399.3 Z M493.1,399.9 L637.2,264.8 C642.3,260.1 642.3,252 637.2,247.3 L493.1,112.1 C488.3,107.6 480.7,107.8 476.1,112.6 L432.6,159 C428,163.9 428.3,171.7 433.4,176.2 L524,256 L433.4,335.7 C428.3,340.2 427.9,348 432.6,352.9 L476.1,399.3 C480.6,404.2 488.2,404.4 493.1,399.9 Z" id="Shape"></path>
        </g>
    </g>
</svg>