<?xml version="1.0" encoding="UTF-8"?>
<svg width="213px" height="241px" viewBox="0 0 213 241" version="1.1" xmlns="http://www.w3.org/2000/svg" xmlns:xlink="http://www.w3.org/1999/xlink">
    <!-- Generator: Sketch 58 (84663) - https://sketch.com -->
    <title>nordoff-robins-nr</title>
    <desc>Created with Sketch.</desc>
    <g id="Page-1" stroke="none" stroke-width="1" fill="none" fill-rule="evenodd">
        <g id="nordoff-robins-nr" fill="#000000" fill-rule="nonzero">
            <g id="Group">
                <path d="M130.559524,62.4589474 C125.440476,59.1336842 116.994048,57.5989474 110.339286,57.5989474 C91.9107143,57.5989474 79.625,65.2726316 72.7142857,80.8757895 C69.1309524,89.3168421 67.3392857,100.315789 67.3392857,113.872632 L67.3392857,236.395789 C67.3392857,238.442105 65.547619,240.232632 63.5,240.232632 L4.11904762,240.232632 C2.07142857,240.232632 0.279761905,238.442105 0.279761905,236.395789 L0.279761905,24.8578947 C0.279761905,22.5557895 2.07142857,21.5326316 4.11904762,21.0210526 L61.452381,6.44105263 C63.7559524,5.92947368 65.547619,7.97578947 65.547619,10.0221053 L65.547619,30.7410526 C70.922619,23.8347368 76.0416667,18.4631579 80.9047619,14.8821053 C93.702381,5.16210526 110.083333,0.302105263 129.535714,0.302105263 L130.815476,0.302105263 L130.815476,62.4589474 L130.559524,62.4589474 Z" id="Path"></path>
                <path d="M144.125,1.32526316 C144.125,1.32526316 177.654762,3.62736842 196.339286,27.16 C213.744048,49.1578947 212.720238,89.8284211 212.720238,89.8284211 L212.720238,236.14 C212.720238,238.186316 210.928571,239.976842 208.880952,239.976842 L147.964286,239.976842 C145.916667,239.976842 144.125,238.186316 144.125,236.14 L144.125,1.32526316 Z" id="Path"></path>
            </g>
        </g>
    </g>
</svg>